<svg xmlns="http://www.w3.org/2000/svg" width="28" height="35" viewBox="0 0 28 35" fill="none"><path d="M13.75 7.5C12.5139 7.5 11.3055 7.86656 10.2777 8.55332C9.24988 9.24007 8.4488 10.2162 7.97575 11.3582C7.5027 12.5003 7.37893 13.7569 7.62009 14.9693C7.86125 16.1817 8.4565 17.2953 9.33058 18.1694C10.2047 19.0435 11.3183 19.6388 12.5307 19.8799C13.7431 20.1211 14.9997 19.9973 16.1418 19.5242C17.2838 19.0512 18.2599 18.2501 18.9467 17.2223C19.6334 16.1945 20 14.9861 20 13.75C20 12.0924 19.3415 10.5027 18.1694 9.33058C16.9973 8.15848 15.4076 7.5 13.75 7.5ZM13.75 17.5C13.0083 17.5 12.2833 17.2801 11.6666 16.868C11.0499 16.456 10.5693 15.8703 10.2855 15.1851C10.0016 14.4998 9.92736 13.7458 10.0721 13.0184C10.2167 12.291 10.5739 11.6228 11.0983 11.0983C11.6228 10.5739 12.291 10.2167 13.0184 10.0721C13.7458 9.92736 14.4998 10.0016 15.1851 10.2855C15.8703 10.5693 16.456 11.0499 16.868 11.6666C17.2801 12.2833 17.5 13.0083 17.5 13.75C17.5 14.7446 17.1049 15.6984 16.4017 16.4017C15.6984 17.1049 14.7446 17.5 13.75 17.5ZM13.75 0C10.1045 0.00413552 6.60958 1.45412 4.03185 4.03185C1.45412 6.60958 0.00413552 10.1045 0 13.75C0 18.6562 2.26719 23.8563 6.5625 28.7891C8.49253 31.0181 10.6648 33.0252 13.0391 34.7734C13.2492 34.9207 13.4996 34.9996 13.7562 34.9996C14.0129 34.9996 14.2633 34.9207 14.4734 34.7734C16.8434 33.0245 19.0114 31.0174 20.9375 28.7891C25.2266 23.8563 27.5 18.6562 27.5 13.75C27.4959 10.1045 26.0459 6.60958 23.4682 4.03185C20.8904 1.45412 17.3955 0.00413552 13.75 0ZM13.75 32.1875C11.1672 30.1562 2.5 22.6953 2.5 13.75C2.5 10.7663 3.68526 7.90483 5.79505 5.79505C7.90483 3.68526 10.7663 2.5 13.75 2.5C16.7337 2.5 19.5952 3.68526 21.705 5.79505C23.8147 7.90483 25 10.7663 25 13.75C25 22.6922 16.3328 30.1562 13.75 32.1875Z" fill="#FCFCFC"></path></svg>